<svg xmlns="http://www.w3.org/2000/svg" width="16" height="15.309" viewBox="0 0 16 15.309"><g transform="translate(0 -11.059)"><path d="M1.75,110.326a.443.443,0,0,0-.626,0l-.994.994a.443.443,0,0,0,0,.626l.644.644,1.621-1.62Z" transform="translate(0 -96.039)" fill="#0b0e38"/><path d="M219.057,329.25l-.553-2.173-1.621,1.621Z" transform="translate(-210.107 -306.142)" fill="#0b0e38"/><path d="M41.2,149.774,35.821,144.4,34.2,146.018l5.377,5.377Zm-5.333-4.685,4.685,4.685-.368.368L35.5,145.458Z" transform="translate(-33.131 -129.171)" fill="#0b0e38"/><rect width="0.917" height="0.876" transform="translate(6.114 14.854)" fill="#0b0e38"/><rect width="0.917" height="0.875" transform="translate(6.114 16.985)" fill="#0b0e38"/><rect width="5.408" height="0.876" transform="translate(8.021 14.854)" fill="#0b0e38"/><rect width="5.408" height="0.875" transform="translate(8.021 16.985)" fill="#0b0e38"/><rect width="4.411" height="0.875" transform="translate(9.018 19.116)" fill="#0b0e38"/><path d="M123.288,11.059h-7.32a2.571,2.571,0,0,0-2.568,2.568V14.65l.951.951V13.627a1.617,1.617,0,0,1,1.617-1.617h7.32a1.617,1.617,0,0,1,1.617,1.617v7.939h-2.5a1.348,1.348,0,0,0-1.348,1.348v2.5h-5.087a1.617,1.617,0,0,1-1.617-1.617V22.641l-.195-.05.195-.195V21.7l-.951-.951V23.8a2.571,2.571,0,0,0,2.568,2.568h5.48l.279-.279,3.851-3.851.278-.278V13.627A2.571,2.571,0,0,0,123.288,11.059Z" transform="translate(-109.856)" fill="#0b0e38"/></g></svg>